<svg xmlns="http://www.w3.org/2000/svg" viewBox="0 0 512 512">
  <defs>
    <linearGradient id="bg" x1="44" y1="38" x2="460" y2="474" gradientUnits="userSpaceOnUse">
      <stop offset="0" stop-color="#262626"/>
      <stop offset="1" stop-color="#0c0c0f"/>
    </linearGradient>
    <radialGradient id="glow" cx="0" cy="0" r="1" gradientTransform="translate(262 200) rotate(90) scale(188)" gradientUnits="userSpaceOnUse">
      <stop offset="0" stop-color="#C589FF" stop-opacity=".72"/>
      <stop offset=".48" stop-color="#A96BFF" stop-opacity=".18"/>
      <stop offset="1" stop-color="#A96BFF" stop-opacity="0"/>
    </radialGradient>
    <linearGradient id="tentacle" x1="88" y1="116" x2="410" y2="402" gradientUnits="userSpaceOnUse">
      <stop offset="0" stop-color="#D7A3FF"/>
      <stop offset=".4" stop-color="#B274FF"/>
      <stop offset="1" stop-color="#7B42D8"/>
    </linearGradient>
    <linearGradient id="tentacleShadow" x1="150" y1="148" x2="358" y2="374" gradientUnits="userSpaceOnUse">
      <stop offset="0" stop-color="#63319E"/>
      <stop offset="1" stop-color="#3A1C65"/>
    </linearGradient>
  </defs>
  <rect width="512" height="512" rx="128" fill="url(#bg)"/>
  <circle cx="262" cy="200" r="188" fill="url(#glow)"/>
  <path d="M88 340C46 378 44 438 96 442C146 446 162 390 136 346C102 288 122 170 180 148C219 133 242 164 238 204C234 248 196 274 182 314C170 350 186 390 224 394C286 400 282 280 304 212C321 160 365 142 406 168C454 198 456 270 420 314C384 358 322 360 296 322C273 288 292 244 334 234C372 226 408 248 418 286C430 332 400 388 346 404" fill="none" stroke="url(#tentacle)" stroke-linecap="round" stroke-linejoin="round" stroke-width="54"/>
  <path d="M102 338C66 372 68 420 108 424C146 428 156 386 136 346C108 288 126 186 178 166C210 154 226 180 224 208C222 238 192 268 180 304C170 334 180 370 212 372C258 374 258 270 278 214C294 168 330 156 364 176C406 200 410 258 382 296C356 332 316 334 300 304C286 276 300 250 332 246C364 244 392 266 398 296C406 330 384 368 342 382" fill="none" stroke="url(#tentacleShadow)" stroke-linecap="round" stroke-linejoin="round" stroke-opacity=".72" stroke-width="18"/>
  <g fill="#E8C7FF" fill-opacity=".52">
    <circle cx="118" cy="382" r="7"/>
    <circle cx="136" cy="404" r="7"/>
    <circle cx="154" cy="386" r="7"/>
    <circle cx="174" cy="332" r="7"/>
    <circle cx="192" cy="286" r="7"/>
    <circle cx="210" cy="318" r="7"/>
    <circle cx="228" cy="354" r="7"/>
    <circle cx="308" cy="298" r="7"/>
    <circle cx="330" cy="278" r="7"/>
    <circle cx="350" cy="286" r="7"/>
    <circle cx="372" cy="308" r="7"/>
    <circle cx="384" cy="336" r="7"/>
  </g>
  <g fill="#F7E7FF" fill-opacity=".34">
    <ellipse cx="128" cy="196" rx="22" ry="10" transform="rotate(-26 128 196)"/>
    <ellipse cx="206" cy="138" rx="22" ry="10" transform="rotate(-14 206 138)"/>
    <ellipse cx="314" cy="170" rx="24" ry="10" transform="rotate(18 314 170)"/>
    <ellipse cx="404" cy="250" rx="20" ry="9" transform="rotate(24 404 250)"/>
  </g>
</svg>
